# Blender v3.1.2 OBJ File: 'test_box.blend'
# www.blender.org
mtllib test_box.mtl
o Cube_Cube.001
v -0.250000 0.000000 -0.250000
v -0.250000 0.500000 -0.250000
v 0.250000 0.000000 -0.250000
v 0.250000 0.500000 -0.250000
v -0.240867 0.009133 0.250000
v -0.240867 0.490867 0.250000
v 0.240867 0.009133 0.250000
v 0.240867 0.490867 0.250000
v 0.250000 0.500000 0.250000
v 0.250000 0.000000 0.250000
v -0.250000 0.000000 0.250000
v -0.250000 0.500000 0.250000
v 0.240867 0.490867 -0.233524
v 0.240867 0.009133 -0.233524
v -0.240867 0.009133 -0.233524
v -0.240867 0.490867 -0.233524
vt 0.375000 0.000000
vt 0.625000 0.000000
vt 0.625000 0.250000
vt 0.375000 0.250000
vt 0.625000 0.500000
vt 0.375000 0.500000
vt 0.620434 0.504566
vt 0.620434 0.745434
vt 0.620434 0.745434
vt 0.620434 0.504566
vt 0.375000 0.750000
vt 0.625000 0.750000
vt 0.625000 1.000000
vt 0.375000 1.000000
vt 0.125000 0.500000
vt 0.125000 0.750000
vt 0.875000 0.500000
vt 0.875000 0.750000
vt 0.379566 0.504566
vt 0.379566 0.745434
vt 0.379566 0.504566
vt 0.379566 0.745434
vn 0.0000 0.0000 -1.0000
vn 1.0000 0.0000 0.0000
vn 0.0000 -1.0000 0.0000
vn -1.0000 0.0000 -0.0000
vn 0.0000 1.0000 0.0000
vn 0.0000 0.0000 1.0000
usemtl None
s off
f 1/1/1 2/2/1 4/3/1 3/4/1
f 3/4/2 4/3/2 9/5/2 10/6/2
f 8/7/3 6/8/3 16/9/3 13/10/3
f 11/11/4 12/12/4 2/13/4 1/14/4
f 3/15/3 10/6/3 11/11/3 1/16/3
f 9/5/5 4/17/5 2/18/5 12/12/5
f 8/7/6 7/19/6 10/6/6 9/5/6
f 7/19/6 5/20/6 11/11/6 10/6/6
f 6/8/6 8/7/6 9/5/6 12/12/6
f 5/20/6 6/8/6 12/12/6 11/11/6
f 14/21/6 13/10/6 16/9/6 15/22/6
f 7/19/4 8/7/4 13/10/4 14/21/4
f 6/8/2 5/20/2 15/22/2 16/9/2
f 5/20/5 7/19/5 14/21/5 15/22/5
