# Blender v3.1.2 OBJ File: 'simple_flashlight.blend'
# www.blender.org
mtllib flashlight_tube.mtl
o Cylinder
v -0.000000 -0.050000 -0.015652
v -0.000000 0.050000 -0.015652
v 0.003054 -0.050000 -0.015351
v 0.003054 0.050000 -0.015351
v 0.005990 -0.050000 -0.014461
v 0.005990 0.050000 -0.014461
v 0.008696 -0.050000 -0.013014
v 0.008696 0.050000 -0.013014
v 0.011068 -0.050000 -0.011068
v 0.011068 0.050000 -0.011068
v 0.013014 -0.050000 -0.008696
v 0.013014 0.050000 -0.008696
v 0.014461 -0.050000 -0.005990
v 0.014461 0.050000 -0.005990
v 0.015351 -0.050000 -0.003054
v 0.015351 0.050000 -0.003054
v 0.015652 -0.050000 0.000000
v 0.015652 0.050000 0.000000
v 0.015351 -0.050000 0.003054
v 0.015351 0.050000 0.003054
v 0.014461 -0.050000 0.005990
v 0.014461 0.050000 0.005990
v 0.013014 -0.050000 0.008696
v 0.013014 0.050000 0.008696
v 0.011068 -0.050000 0.011068
v 0.011068 0.050000 0.011068
v 0.008696 -0.050000 0.013014
v 0.008696 0.050000 0.013014
v 0.005990 -0.050000 0.014461
v 0.005990 0.050000 0.014461
v 0.003054 -0.050000 0.015351
v 0.003054 0.050000 0.015351
v -0.000000 -0.050000 0.015652
v -0.000000 0.050000 0.015652
v -0.003054 -0.050000 0.015351
v -0.003054 0.050000 0.015351
v -0.005990 -0.050000 0.014461
v -0.005990 0.050000 0.014461
v -0.008696 -0.050000 0.013014
v -0.008696 0.050000 0.013014
v -0.011068 -0.050000 0.011068
v -0.011068 0.050000 0.011068
v -0.013014 -0.050000 0.008696
v -0.013014 0.050000 0.008696
v -0.014461 -0.050000 0.005990
v -0.014461 0.050000 0.005990
v -0.015351 -0.050000 0.003054
v -0.015351 0.050000 0.003054
v -0.015652 -0.050000 0.000000
v -0.015652 0.050000 0.000000
v -0.015351 -0.050000 -0.003054
v -0.015351 0.050000 -0.003054
v -0.014461 -0.050000 -0.005990
v -0.014461 0.050000 -0.005990
v -0.013014 -0.050000 -0.008696
v -0.013014 0.050000 -0.008696
v -0.011068 -0.050000 -0.011068
v -0.011068 0.050000 -0.011068
v -0.008696 -0.050000 -0.013014
v -0.008696 0.050000 -0.013014
v -0.005990 -0.050000 -0.014461
v -0.005990 0.050000 -0.014461
v -0.003054 -0.050000 -0.015351
v -0.003054 0.050000 -0.015351
v -0.000000 0.050323 -0.013862
v 0.002704 0.050323 -0.013596
v 0.005305 0.050323 -0.012807
v 0.007701 0.050323 -0.011526
v 0.009802 0.050323 -0.009802
v 0.011526 0.050323 -0.007701
v 0.012807 0.050323 -0.005305
v 0.013596 0.050323 -0.002704
v 0.013862 0.050323 0.000000
v 0.013596 0.050323 0.002704
v 0.012807 0.050323 0.005305
v 0.011526 0.050323 0.007701
v 0.009802 0.050323 0.009802
v 0.007701 0.050323 0.011526
v 0.005305 0.050323 0.012807
v 0.002704 0.050323 0.013596
v -0.000000 0.050323 0.013862
v -0.002704 0.050323 0.013596
v -0.005305 0.050323 0.012807
v -0.007701 0.050323 0.011526
v -0.009802 0.050323 0.009802
v -0.011526 0.050323 0.007701
v -0.012807 0.050323 0.005305
v -0.013596 0.050323 0.002704
v -0.013862 0.050323 0.000000
v -0.013596 0.050323 -0.002704
v -0.012807 0.050323 -0.005305
v -0.011526 0.050323 -0.007701
v -0.009802 0.050323 -0.009802
v -0.007701 0.050323 -0.011526
v -0.005305 0.050323 -0.012807
v -0.002704 0.050323 -0.013596
v -0.000000 -0.045024 -0.013862
v 0.002704 -0.045024 -0.013596
v 0.005305 -0.045024 -0.012807
v 0.007701 -0.045024 -0.011526
v 0.009802 -0.045024 -0.009802
v 0.011526 -0.045024 -0.007701
v 0.012807 -0.045024 -0.005305
v 0.013596 -0.045024 -0.002704
v 0.013862 -0.045024 0.000000
v 0.013596 -0.045024 0.002704
v 0.012807 -0.045024 0.005305
v 0.011526 -0.045024 0.007701
v 0.009802 -0.045024 0.009802
v 0.007701 -0.045024 0.011526
v 0.005305 -0.045024 0.012807
v 0.002704 -0.045024 0.013596
v -0.000000 -0.045024 0.013862
v -0.002704 -0.045024 0.013596
v -0.005305 -0.045024 0.012807
v -0.007701 -0.045024 0.011526
v -0.009802 -0.045024 0.009802
v -0.011526 -0.045024 0.007701
v -0.012807 -0.045024 0.005305
v -0.013596 -0.045024 0.002704
v -0.013862 -0.045024 0.000000
v -0.013596 -0.045024 -0.002704
v -0.012807 -0.045024 -0.005305
v -0.011526 -0.045024 -0.007701
v -0.009802 -0.045024 -0.009802
v -0.007701 -0.045024 -0.011526
v -0.005305 -0.045024 -0.012807
v -0.002704 -0.045024 -0.013596
vt 1.000000 0.500000
vt 1.000000 1.000000
vt 0.968750 1.000000
vt 0.968750 0.500000
vt 0.937500 1.000000
vt 0.937500 0.500000
vt 0.906250 1.000000
vt 0.906250 0.500000
vt 0.875000 1.000000
vt 0.875000 0.500000
vt 0.843750 1.000000
vt 0.843750 0.500000
vt 0.812500 1.000000
vt 0.812500 0.500000
vt 0.781250 1.000000
vt 0.781250 0.500000
vt 0.750000 1.000000
vt 0.750000 0.500000
vt 0.718750 1.000000
vt 0.718750 0.500000
vt 0.687500 1.000000
vt 0.687500 0.500000
vt 0.656250 1.000000
vt 0.656250 0.500000
vt 0.625000 1.000000
vt 0.625000 0.500000
vt 0.593750 1.000000
vt 0.593750 0.500000
vt 0.562500 1.000000
vt 0.562500 0.500000
vt 0.531250 1.000000
vt 0.531250 0.500000
vt 0.500000 1.000000
vt 0.500000 0.500000
vt 0.468750 1.000000
vt 0.468750 0.500000
vt 0.437500 1.000000
vt 0.437500 0.500000
vt 0.406250 1.000000
vt 0.406250 0.500000
vt 0.375000 1.000000
vt 0.375000 0.500000
vt 0.343750 1.000000
vt 0.343750 0.500000
vt 0.312500 1.000000
vt 0.312500 0.500000
vt 0.281250 1.000000
vt 0.281250 0.500000
vt 0.250000 1.000000
vt 0.250000 0.500000
vt 0.218750 1.000000
vt 0.218750 0.500000
vt 0.187500 1.000000
vt 0.187500 0.500000
vt 0.156250 1.000000
vt 0.156250 0.500000
vt 0.125000 1.000000
vt 0.125000 0.500000
vt 0.093750 1.000000
vt 0.093750 0.500000
vt 0.062500 1.000000
vt 0.062500 0.500000
vt 0.718750 1.000000
vt 0.687500 1.000000
vt 0.031250 1.000000
vt 0.031250 0.500000
vt 0.000000 1.000000
vt 0.000000 0.500000
vt 0.750000 0.490000
vt 0.796822 0.485388
vt 0.841844 0.471731
vt 0.883337 0.449553
vt 0.919706 0.419706
vt 0.949553 0.383337
vt 0.971731 0.341844
vt 0.985388 0.296822
vt 0.990000 0.250000
vt 0.985388 0.203178
vt 0.971731 0.158156
vt 0.949553 0.116663
vt 0.919706 0.080294
vt 0.883337 0.050447
vt 0.841844 0.028269
vt 0.796822 0.014612
vt 0.750000 0.010000
vt 0.703178 0.014612
vt 0.658156 0.028269
vt 0.616663 0.050447
vt 0.580294 0.080294
vt 0.550447 0.116663
vt 0.528269 0.158156
vt 0.514612 0.203178
vt 0.510000 0.250000
vt 0.514612 0.296822
vt 0.528269 0.341844
vt 0.550447 0.383337
vt 0.580294 0.419706
vt 0.616663 0.449553
vt 0.658156 0.471731
vt 0.703178 0.485388
vt 0.531250 1.000000
vt 0.562500 1.000000
vt 0.562500 1.000000
vt 0.531250 1.000000
vt 0.437500 1.000000
vt 0.406250 1.000000
vt 0.156250 1.000000
vt 0.125000 1.000000
vt 0.843750 1.000000
vt 0.812500 1.000000
vt 0.281250 1.000000
vt 0.250000 1.000000
vt 0.968750 1.000000
vt 0.937500 1.000000
vt 0.656250 1.000000
vt 0.375000 1.000000
vt 0.093750 1.000000
vt 0.781250 1.000000
vt 0.500000 1.000000
vt 0.218750 1.000000
vt 0.906250 1.000000
vt 0.625000 1.000000
vt 0.343750 1.000000
vt 0.062500 1.000000
vt 0.750000 1.000000
vt 0.468750 1.000000
vt 0.187500 1.000000
vt 0.875000 1.000000
vt 0.593750 1.000000
vt 0.312500 1.000000
vt 0.031250 1.000000
vt 1.000000 1.000000
vt 0.000000 1.000000
vt 0.968750 1.000000
vt 0.937500 1.000000
vt 0.125000 1.000000
vt 0.093750 1.000000
vt 0.500000 1.000000
vt 0.906250 1.000000
vt 0.062500 1.000000
vt 0.468750 1.000000
vt 0.875000 1.000000
vt 0.031250 1.000000
vt 0.437500 1.000000
vt 0.843750 1.000000
vt 0.000000 1.000000
vt 0.406250 1.000000
vt 0.812500 1.000000
vt 0.375000 1.000000
vt 0.781250 1.000000
vt 0.343750 1.000000
vt 0.750000 1.000000
vt 0.312500 1.000000
vt 0.718750 1.000000
vt 0.281250 1.000000
vt 0.687500 1.000000
vt 0.250000 1.000000
vt 0.656250 1.000000
vt 0.218750 1.000000
vt 0.625000 1.000000
vt 0.187500 1.000000
vt 0.593750 1.000000
vt 0.156250 1.000000
vt 1.000000 1.000000
vn 0.0980 0.0000 -0.9952
vn 0.2903 0.0000 -0.9569
vn 0.4714 0.0000 -0.8819
vn 0.6344 0.0000 -0.7730
vn 0.7730 0.0000 -0.6344
vn 0.8819 0.0000 -0.4714
vn 0.9569 0.0000 -0.2903
vn 0.9952 0.0000 -0.0980
vn 0.9952 0.0000 0.0980
vn 0.9569 0.0000 0.2903
vn 0.8819 0.0000 0.4714
vn 0.7730 0.0000 0.6344
vn 0.6344 0.0000 0.7730
vn 0.4714 0.0000 0.8819
vn 0.2903 0.0000 0.9569
vn 0.0980 0.0000 0.9952
vn -0.0980 0.0000 0.9952
vn -0.2903 0.0000 0.9569
vn -0.4714 0.0000 0.8819
vn -0.6344 0.0000 0.7730
vn -0.7730 0.0000 0.6344
vn -0.8819 0.0000 0.4714
vn -0.9569 0.0000 0.2903
vn -0.9952 0.0000 0.0980
vn -0.9952 0.0000 -0.0980
vn -0.9569 0.0000 -0.2903
vn -0.8819 0.0000 -0.4714
vn -0.7730 0.0000 -0.6344
vn -0.6344 0.0000 -0.7730
vn -0.4714 0.0000 -0.8819
vn 0.1708 0.9839 0.0518
vn -0.2903 0.0000 -0.9569
vn -0.0980 0.0000 -0.9952
vn 0.0000 -1.0000 -0.0000
vn -0.0841 0.9839 0.1574
vn -0.1380 0.9839 -0.1132
vn 0.1574 0.9839 -0.0841
vn 0.0518 0.9839 0.1708
vn -0.1776 0.9839 0.0175
vn 0.0518 0.9839 -0.1708
vn 0.1574 0.9839 0.0841
vn -0.1132 0.9839 0.1380
vn -0.1132 0.9839 -0.1380
vn 0.1708 0.9839 -0.0518
vn 0.0175 0.9839 0.1776
vn -0.1776 0.9839 -0.0175
vn 0.0841 0.9839 -0.1574
vn 0.1380 0.9839 0.1132
vn -0.1380 0.9839 0.1132
vn -0.0841 0.9839 -0.1574
vn 0.1776 0.9839 -0.0175
vn -0.0175 0.9839 0.1776
vn -0.1708 0.9839 -0.0518
vn 0.1132 0.9839 -0.1380
vn 0.1132 0.9839 0.1380
vn -0.1574 0.9839 0.0841
vn -0.0518 0.9839 -0.1708
vn 0.1776 0.9839 0.0175
vn -0.0518 0.9839 0.1708
vn -0.1574 0.9839 -0.0841
vn 0.1380 0.9839 -0.1132
vn 0.0841 0.9839 0.1574
vn -0.1708 0.9839 0.0518
vn 0.0175 0.9839 -0.1776
vn -0.0175 0.9839 -0.1776
usemtl None
s off
f 1/1/1 2/2/1 4/3/1 3/4/1
f 3/4/2 4/3/2 6/5/2 5/6/2
f 5/6/3 6/5/3 8/7/3 7/8/3
f 7/8/4 8/7/4 10/9/4 9/10/4
f 9/10/5 10/9/5 12/11/5 11/12/5
f 11/12/6 12/11/6 14/13/6 13/14/6
f 13/14/7 14/13/7 16/15/7 15/16/7
f 15/16/8 16/15/8 18/17/8 17/18/8
f 17/18/9 18/17/9 20/19/9 19/20/9
f 19/20/10 20/19/10 22/21/10 21/22/10
f 21/22/11 22/21/11 24/23/11 23/24/11
f 23/24/12 24/23/12 26/25/12 25/26/12
f 25/26/13 26/25/13 28/27/13 27/28/13
f 27/28/14 28/27/14 30/29/14 29/30/14
f 29/30/15 30/29/15 32/31/15 31/32/15
f 31/32/16 32/31/16 34/33/16 33/34/16
f 33/34/17 34/33/17 36/35/17 35/36/17
f 35/36/18 36/35/18 38/37/18 37/38/18
f 37/38/19 38/37/19 40/39/19 39/40/19
f 39/40/20 40/39/20 42/41/20 41/42/20
f 41/42/21 42/41/21 44/43/21 43/44/21
f 43/44/22 44/43/22 46/45/22 45/46/22
f 45/46/23 46/45/23 48/47/23 47/48/23
f 47/48/24 48/47/24 50/49/24 49/50/24
f 49/50/25 50/49/25 52/51/25 51/52/25
f 51/52/26 52/51/26 54/53/26 53/54/26
f 53/54/27 54/53/27 56/55/27 55/56/27
f 55/56/28 56/55/28 58/57/28 57/58/28
f 57/58/29 58/57/29 60/59/29 59/60/29
f 59/60/30 60/59/30 62/61/30 61/62/30
f 22/21/31 20/19/31 74/63/31 75/64/31
f 61/62/32 62/61/32 64/65/32 63/66/32
f 63/66/33 64/65/33 2/67/33 1/68/33
f 1/69/34 3/70/34 5/71/34 7/72/34 9/73/34 11/74/34 13/75/34 15/76/34 17/77/34 19/78/34 21/79/34 23/80/34 25/81/34 27/82/34 29/83/34 31/84/34 33/85/34 35/86/34 37/87/34 39/88/34 41/89/34 43/90/34 45/91/34 47/92/34 49/93/34 51/94/34 53/95/34 55/96/34 57/97/34 59/98/34 61/99/34 63/100/34
f 80/101/32 79/102/32 111/103/32 112/104/32
f 40/39/35 38/37/35 83/105/35 84/106/35
f 58/57/36 56/55/36 92/107/36 93/108/36
f 14/13/37 12/11/37 70/109/37 71/110/37
f 32/31/38 30/29/38 79/102/38 80/101/38
f 50/49/39 48/47/39 88/111/39 89/112/39
f 6/5/40 4/3/40 66/113/40 67/114/40
f 24/23/41 22/21/41 75/64/41 76/115/41
f 42/41/42 40/39/42 84/106/42 85/116/42
f 60/59/43 58/57/43 93/108/43 94/117/43
f 16/15/44 14/13/44 71/110/44 72/118/44
f 34/33/45 32/31/45 80/101/45 81/119/45
f 52/51/46 50/49/46 89/112/46 90/120/46
f 8/7/47 6/5/47 67/114/47 68/121/47
f 26/25/48 24/23/48 76/115/48 77/122/48
f 44/43/49 42/41/49 85/116/49 86/123/49
f 62/61/50 60/59/50 94/117/50 95/124/50
f 18/17/51 16/15/51 72/118/51 73/125/51
f 36/35/52 34/33/52 81/119/52 82/126/52
f 54/53/53 52/51/53 90/120/53 91/127/53
f 10/9/54 8/7/54 68/121/54 69/128/54
f 28/27/55 26/25/55 77/122/55 78/129/55
f 46/45/56 44/43/56 86/123/56 87/130/56
f 64/65/57 62/61/57 95/124/57 96/131/57
f 20/19/58 18/17/58 73/125/58 74/63/58
f 38/37/59 36/35/59 82/126/59 83/105/59
f 56/55/60 54/53/60 91/127/60 92/107/60
f 12/11/61 10/9/61 69/128/61 70/109/61
f 30/29/62 28/27/62 78/129/62 79/102/62
f 48/47/63 46/45/63 87/130/63 88/111/63
f 4/3/64 2/2/64 65/132/64 66/113/64
f 2/67/65 64/65/65 96/131/65 65/133/65
f 67/114/18 66/113/18 98/134/18 99/135/18
f 94/117/13 93/108/13 125/136/13 126/137/13
f 81/119/33 80/101/33 112/104/33 113/138/33
f 68/121/19 67/114/19 99/135/19 100/139/19
f 95/124/14 94/117/14 126/137/14 127/140/14
f 82/126/1 81/119/1 113/138/1 114/141/1
f 69/128/20 68/121/20 100/139/20 101/142/20
f 96/131/15 95/124/15 127/140/15 128/143/15
f 83/105/2 82/126/2 114/141/2 115/144/2
f 70/109/21 69/128/21 101/142/21 102/145/21
f 65/133/16 96/131/16 128/143/16 97/146/16
f 84/106/3 83/105/3 115/144/3 116/147/3
f 71/110/22 70/109/22 102/145/22 103/148/22
f 85/116/4 84/106/4 116/147/4 117/149/4
f 72/118/23 71/110/23 103/148/23 104/150/23
f 86/123/5 85/116/5 117/149/5 118/151/5
f 73/125/24 72/118/24 104/150/24 105/152/24
f 87/130/6 86/123/6 118/151/6 119/153/6
f 74/63/25 73/125/25 105/152/25 106/154/25
f 88/111/7 87/130/7 119/153/7 120/155/7
f 75/64/26 74/63/26 106/154/26 107/156/26
f 89/112/8 88/111/8 120/155/8 121/157/8
f 76/115/27 75/64/27 107/156/27 108/158/27
f 90/120/9 89/112/9 121/157/9 122/159/9
f 77/122/28 76/115/28 108/158/28 109/160/28
f 91/127/10 90/120/10 122/159/10 123/161/10
f 78/129/29 77/122/29 109/160/29 110/162/29
f 92/107/11 91/127/11 123/161/11 124/163/11
f 79/102/30 78/129/30 110/162/30 111/103/30
f 66/113/17 65/132/17 97/164/17 98/134/17
f 93/108/12 92/107/12 124/163/12 125/136/12
