# Blender 3.1.2
# www.blender.org
o Sphere
v 0.000000 0.780690 -0.561573
v 0.000000 0.616885 -1.101565
v 0.000000 0.350881 -1.599224
v 0.000000 -0.007101 -2.035426
v 0.109557 0.780690 -0.550782
v 0.214905 0.616885 -1.080398
v 0.311993 0.350881 -1.568495
v 0.397092 -0.007101 -1.996315
v 0.214905 0.780690 -0.518825
v 0.421551 0.616885 -1.017713
v 0.611997 0.350881 -1.477490
v 0.778924 -0.007101 -1.880488
v 0.311993 0.780690 -0.466931
v 0.611997 0.616885 -0.915917
v 0.888481 0.350881 -1.329706
v 1.130822 -0.007101 -1.692395
v 0.397092 0.780690 -0.397092
v 0.778924 0.616885 -0.778924
v 1.130822 0.350881 -1.130822
v 1.439263 -0.007101 -1.439263
v 0.466931 0.780690 -0.311993
v 0.915918 0.616885 -0.611996
v 1.329706 0.350881 -0.888481
v 1.692395 -0.007101 -1.130822
v 0.518826 0.780690 -0.214904
v 1.017713 0.616885 -0.421550
v 1.477490 0.350881 -0.611996
v 1.880488 -0.007101 -0.778924
v 0.550782 0.780690 -0.109557
v 1.080399 0.616885 -0.214904
v 1.568495 0.350881 -0.311993
v 1.996315 -0.007101 -0.397092
v 0.561573 0.780690 0.000000
v 1.101565 0.616885 0.000000
v 1.599223 0.350881 0.000000
v 2.035425 -0.007101 0.000000
v 0.550782 0.780690 0.109558
v 1.080398 0.616885 0.214905
v 1.568495 0.350881 0.311993
v 1.996315 -0.007101 0.397092
v 0.518826 0.780690 0.214905
v 1.017713 0.616885 0.421551
v 1.477490 0.350881 0.611997
v 1.880488 -0.007101 0.778924
v 0.466931 0.780690 0.311993
v 0.915918 0.616885 0.611997
v 1.329705 0.350881 0.888481
v 1.692394 -0.007101 1.130822
v 0.397092 0.780690 0.397092
v 0.778924 0.616885 0.778924
v 1.130821 0.350881 1.130822
v 1.439263 -0.007101 1.439263
v 0.311993 0.780690 0.466931
v 0.611996 0.616885 0.915918
v 0.888481 0.350881 1.329706
v 1.130822 -0.007101 1.692395
v 0.214905 0.780690 0.518826
v 0.421550 0.616885 1.017713
v 0.611996 0.350881 1.477490
v 0.778924 -0.007101 1.880488
v 0.109557 0.780690 0.550783
v 0.214905 0.616885 1.080399
v 0.311993 0.350881 1.568495
v 0.397092 -0.007101 1.996315
v 0.000000 0.780690 0.561573
v -0.000000 0.616885 1.101565
v -0.000000 0.350881 1.599223
v 0.000000 -0.007101 2.035425
v -0.109557 0.780690 0.550783
v -0.214905 0.616885 1.080399
v -0.311993 0.350881 1.568495
v -0.397092 -0.007101 1.996315
v -0.214905 0.780690 0.518826
v -0.421551 0.616885 1.017713
v -0.611996 0.350881 1.477490
v -0.778923 -0.007101 1.880488
v -0.311993 0.780690 0.466931
v -0.611997 0.616885 0.915918
v -0.888481 0.350881 1.329705
v -1.130821 -0.007101 1.692394
v -0.397092 0.780690 0.397092
v -0.778924 0.616885 0.778924
v -1.130821 0.350881 1.130821
v -1.439263 -0.007101 1.439263
v -0.466931 0.780690 0.311993
v -0.915917 0.616885 0.611997
v -1.329705 0.350881 0.888481
v -1.692394 -0.007101 1.130822
v -0.000000 0.836000 0.000000
v -0.518825 0.780690 0.214905
v -1.017713 0.616885 0.421551
v -1.477489 0.350881 0.611996
v -1.880488 -0.007101 0.778924
v -0.550782 0.780690 0.109558
v -1.080398 0.616885 0.214905
v -1.568494 0.350881 0.311993
v -1.996315 -0.007101 0.397092
v -0.561573 0.780690 0.000000
v -1.101564 0.616885 0.000000
v -1.599223 0.350881 -0.000000
v -2.035425 -0.007101 0.000000
v -0.550782 0.780690 -0.109557
v -1.080398 0.616885 -0.214904
v -1.568494 0.350881 -0.311993
v -1.996315 -0.007101 -0.397091
v -0.518825 0.780690 -0.214904
v -1.017712 0.616885 -0.421550
v -1.477489 0.350881 -0.611996
v -1.880487 -0.007101 -0.778923
v -0.466930 0.780690 -0.311993
v -0.915917 0.616885 -0.611996
v -1.329705 0.350881 -0.888480
v -1.692394 -0.007101 -1.130821
v -0.397092 0.780690 -0.397092
v -0.778923 0.616885 -0.778923
v -1.130821 0.350881 -1.130821
v -1.439263 -0.007101 -1.439263
v -0.311993 0.780690 -0.466930
v -0.611996 0.616885 -0.915917
v -0.888480 0.350881 -1.329705
v -1.130821 -0.007101 -1.692394
v 0.397091 -0.211484 -1.996312
v 0.778923 -0.211484 -1.880485
v -0.000000 -0.211484 -2.035422
v 0.397091 -0.211484 -1.996312
v -0.397092 -0.211484 -1.996311
v -0.778924 -0.211484 -1.880484
v -1.130822 -0.211484 -1.692390
v -1.439263 -0.211484 -1.439259
v -0.214904 0.780690 -0.518825
v -0.421550 0.616885 -1.017712
v -0.611996 0.350881 -1.477489
v -0.778923 -0.007101 -1.880487
v -1.692395 -0.211484 -1.130818
v -1.880488 -0.211484 -0.778920
v -1.996315 -0.211484 -0.397088
v -2.035425 -0.211484 0.000004
v -1.996315 -0.211484 0.397095
v -1.880488 -0.211484 0.778927
v -1.692395 -0.211484 1.130825
v -1.439263 -0.211484 1.439267
v -1.130822 -0.211484 1.692398
v -0.778924 -0.211484 1.880491
v -0.397092 -0.211484 1.996319
v -0.109557 0.780690 -0.550782
v -0.214904 0.616885 -1.080398
v -0.311992 0.350881 -1.568494
v -0.397092 -0.007101 -1.996315
v -0.000000 -0.211484 2.035429
v 0.397091 -0.211484 1.996319
v 0.778923 -0.211484 1.880491
v 1.130821 -0.211484 1.692398
v 1.439263 -0.211484 1.439267
v 1.692394 -0.211484 1.130826
v 1.880487 -0.211484 0.778927
v 1.996315 -0.211484 0.397095
v 2.035425 -0.211484 0.000004
v 1.996315 -0.211484 -0.397088
v 1.880488 -0.211484 -0.778920
v 1.692394 -0.211484 -1.130818
v 1.439263 -0.211484 -1.439260
v 1.130822 -0.211484 -1.692391
v 0.778923 -0.211484 -1.880485
v 0.397091 -0.211484 -1.996312
v -0.000000 -0.211484 -2.035422
v -0.778924 -0.211484 -1.880484
v -1.130822 -0.211484 -1.692390
v -1.880488 -0.211484 -0.778920
v -1.996315 -0.211484 -0.397088
v -0.000000 -0.211484 -2.035422
vn -0.0000 -0.0000 -1.0000
vn -0.0000 0.8286 -0.5598
vn 0.1092 0.8286 -0.5490
vn 0.1951 -0.0000 -0.9808
vn -0.0000 0.9796 -0.2010
vn -0.0000 1.0000 -0.0000
vn 0.0392 0.9796 -0.1971
vn -0.0000 0.9217 -0.3879
vn 0.0757 0.9217 -0.3804
vn 0.1484 0.9217 -0.3584
vn 0.2142 0.8286 -0.5172
vn 0.3826 -0.0000 -0.9239
vn 0.0769 0.9796 -0.1857
vn 0.1117 0.9796 -0.1671
vn 0.2155 0.9217 -0.3225
vn 0.3110 0.8286 -0.4654
vn 0.5555 -0.0000 -0.8315
vn 0.3958 0.8286 -0.3958
vn 0.7071 -0.0000 -0.7071
vn 0.1421 0.9796 -0.1421
vn 0.2743 0.9217 -0.2743
vn 0.1671 0.9796 -0.1117
vn 0.3225 0.9217 -0.2155
vn 0.4654 0.8286 -0.3110
vn 0.8314 -0.0000 -0.5556
vn 0.5172 0.8286 -0.2142
vn 0.9239 -0.0000 -0.3827
vn 0.1857 0.9796 -0.0769
vn 0.3584 0.9217 -0.1484
vn 0.1971 0.9796 -0.0392
vn 0.3804 0.9217 -0.0757
vn 0.5490 0.8286 -0.1092
vn 0.9808 -0.0000 -0.1951
vn 0.2010 0.9796 -0.0000
vn 0.3879 0.9217 -0.0000
vn 0.5598 0.8286 -0.0000
vn 1.0000 -0.0000 -0.0000
vn 0.1971 0.9796 0.0392
vn 0.3804 0.9217 0.0757
vn 0.5490 0.8286 0.1092
vn 0.9808 -0.0000 0.1951
vn 0.1857 0.9796 0.0769
vn 0.3584 0.9217 0.1484
vn 0.5172 0.8286 0.2142
vn 0.9239 -0.0000 0.3826
vn 0.1671 0.9796 0.1117
vn 0.3225 0.9217 0.2155
vn 0.4654 0.8286 0.3110
vn 0.8315 -0.0000 0.5555
vn 0.1421 0.9796 0.1421
vn 0.2743 0.9217 0.2743
vn 0.3958 0.8286 0.3958
vn 0.7071 -0.0000 0.7071
vn 0.2155 0.9217 0.3225
vn 0.3110 0.8286 0.4654
vn 0.5556 -0.0000 0.8314
vn 0.1117 0.9796 0.1671
vn 0.0769 0.9796 0.1857
vn 0.1484 0.9217 0.3584
vn 0.2142 0.8286 0.5172
vn 0.3827 -0.0000 0.9239
vn 0.0757 0.9217 0.3804
vn 0.1092 0.8286 0.5490
vn 0.1951 -0.0000 0.9808
vn 0.0392 0.9796 0.1971
vn -0.0000 0.9796 0.2010
vn -0.0000 0.9217 0.3879
vn -0.0000 0.8286 0.5598
vn -0.0000 -0.0000 1.0000
vn -0.1092 0.8286 0.5490
vn -0.1951 -0.0000 0.9808
vn -0.0392 0.9796 0.1971
vn -0.0757 0.9217 0.3804
vn -0.0769 0.9796 0.1857
vn -0.1484 0.9217 0.3584
vn -0.2142 0.8286 0.5172
vn -0.3826 -0.0000 0.9239
vn -0.1117 0.9796 0.1671
vn -0.2155 0.9217 0.3225
vn -0.3110 0.8286 0.4654
vn -0.5555 -0.0000 0.8315
vn -0.1421 0.9796 0.1421
vn -0.2743 0.9217 0.2743
vn -0.3958 0.8286 0.3958
vn -0.7071 -0.0000 0.7071
vn -0.1671 0.9796 0.1117
vn -0.3225 0.9217 0.2155
vn -0.4654 0.8286 0.3110
vn -0.8314 -0.0000 0.5556
vn -0.1857 0.9796 0.0769
vn -0.3584 0.9217 0.1484
vn -0.5172 0.8286 0.2142
vn -0.9239 -0.0000 0.3826
vn -0.1971 0.9796 0.0392
vn -0.3804 0.9217 0.0757
vn -0.5490 0.8286 0.1092
vn -0.9808 -0.0000 0.1951
vn -0.2010 0.9796 -0.0000
vn -0.3879 0.9217 -0.0000
vn -0.5598 0.8286 -0.0000
vn -1.0000 -0.0000 -0.0000
vn -0.1971 0.9796 -0.0392
vn -0.3804 0.9217 -0.0757
vn -0.5490 0.8286 -0.1092
vn -0.9808 -0.0000 -0.1951
vn -0.3584 0.9217 -0.1484
vn -0.5172 0.8286 -0.2142
vn -0.9239 -0.0000 -0.3827
vn -0.1857 0.9796 -0.0769
vn -0.1671 0.9796 -0.1117
vn -0.3225 0.9217 -0.2155
vn -0.4654 0.8286 -0.3110
vn -0.8314 -0.0000 -0.5556
vn -0.3958 0.8286 -0.3958
vn -0.7071 -0.0000 -0.7071
vn -0.1421 0.9796 -0.1421
vn -0.2743 0.9217 -0.2743
vn -0.1117 0.9796 -0.1671
vn -0.2155 0.9217 -0.3225
vn -0.3110 0.8286 -0.4654
vn -0.9569 -0.0000 -0.2903
vn -0.5555 -0.0000 -0.8315
vn -0.9952 -0.0000 -0.0981
vn 0.9952 -0.0000 0.0979
vn -0.5556 -0.0000 -0.8315
vn 0.8315 -0.0000 -0.5556
vn -0.2142 0.8286 -0.5172
vn -0.3826 -0.0000 -0.9239
vn 0.3827 -0.0000 -0.9239
vn 0.5556 -0.0000 -0.8315
vn -0.8315 -0.0000 0.5556
vn 0.9239 -0.0000 0.3827
vn 0.8315 -0.0000 0.5556
vn 0.5556 -0.0000 0.8315
vn -0.9239 -0.0000 0.3827
vn -0.0769 0.9796 -0.1857
vn -0.8315 -0.0000 -0.5556
vn -0.1484 0.9217 -0.3584
vn -0.1951 -0.0000 -0.9808
vn -0.3827 -0.0000 0.9239
vn -0.5556 -0.0000 0.8315
vn -0.0392 0.9796 -0.1971
vn -0.0757 0.9217 -0.3804
vn -0.1092 0.8286 -0.5490
vn -0.3827 -0.0000 -0.9239
vn -0.8819 -0.0000 0.4714
vn -0.2903 -0.0000 0.9569
vn 0.2902 -0.0000 -0.9570
vn -0.9570 -0.0000 -0.2902
vn -0.9952 -0.0000 -0.0979
vn 0.9952 -0.0000 0.0981
vn -0.8819 -0.0000 0.4715
vn -0.2902 -0.0000 0.9570
vn 0.2903 -0.0000 -0.9569
vn -0.0979 -0.0000 0.9952
vn 0.0981 -0.0000 -0.9952
vn -0.4714 -0.0000 0.8819
vn 0.4713 -0.0000 -0.8820
vn -0.8819 -0.0000 -0.4714
vn 0.8820 -0.0000 0.4713
vn -0.7729 -0.0000 0.6345
vn 0.7730 -0.0000 -0.6344
vn 0.8819 -0.0000 -0.4714
vn -0.9952 -0.0000 0.0981
vn 0.9952 -0.0000 -0.0980
vt 0.750000 0.937500
vt 0.750000 0.875000
vt 0.750000 0.812500
vt 0.750000 0.750000
vt 0.718750 0.937500
vt 0.718750 0.875000
vt 0.718750 0.812500
vt 0.718750 0.750000
vt 0.687500 0.937500
vt 0.687500 0.875000
vt 0.687500 0.812500
vt 0.687500 0.750000
vt 0.656250 0.937500
vt 0.656250 0.875000
vt 0.656250 0.812500
vt 0.656250 0.750000
vt 0.625000 0.937500
vt 0.625000 0.875000
vt 0.625000 0.812500
vt 0.625000 0.750000
vt 0.593750 0.937500
vt 0.593750 0.875000
vt 0.593750 0.812500
vt 0.593750 0.750000
vt 0.562500 0.937500
vt 0.562500 0.875000
vt 0.562500 0.812500
vt 0.562500 0.750000
vt 0.531250 0.937500
vt 0.531250 0.875000
vt 0.531250 0.812500
vt 0.531250 0.750000
vt 0.500000 0.937500
vt 0.500000 0.875000
vt 0.500000 0.812500
vt 0.500000 0.750000
vt 0.468750 0.937500
vt 0.468750 0.875000
vt 0.468750 0.812500
vt 0.468750 0.750000
vt 0.437500 0.937500
vt 0.437500 0.875000
vt 0.437500 0.812500
vt 0.437500 0.750000
vt 0.406250 0.937500
vt 0.406250 0.875000
vt 0.406250 0.812500
vt 0.406250 0.750000
vt 0.375000 0.937500
vt 0.375000 0.875000
vt 0.375000 0.812500
vt 0.375000 0.750000
vt 0.343750 0.937500
vt 0.343750 0.875000
vt 0.343750 0.812500
vt 0.343750 0.750000
vt 0.312500 0.937500
vt 0.312500 0.875000
vt 0.312500 0.812500
vt 0.312500 0.750000
vt 0.281250 0.937500
vt 0.281250 0.875000
vt 0.281250 0.812500
vt 0.281250 0.750000
vt 0.250000 0.937500
vt 0.250000 0.875000
vt 0.250000 0.812500
vt 0.250000 0.750000
vt 0.218750 0.937500
vt 0.218750 0.875000
vt 0.218750 0.812500
vt 0.218750 0.750000
vt 0.187500 0.937500
vt 0.187500 0.875000
vt 0.187500 0.812500
vt 0.187500 0.750000
vt 0.156250 0.937500
vt 0.156250 0.875000
vt 0.156250 0.812500
vt 0.156250 0.750000
vt 0.125000 0.937500
vt 0.125000 0.875000
vt 0.125000 0.812500
vt 0.125000 0.750000
vt 0.093750 0.937500
vt 0.093750 0.875000
vt 0.093750 0.812500
vt 0.093750 0.750000
vt 0.734375 1.000000
vt 0.703125 1.000000
vt 0.671875 1.000000
vt 0.640625 1.000000
vt 0.609375 1.000000
vt 0.578125 1.000000
vt 0.546875 1.000000
vt 0.515625 1.000000
vt 0.484375 1.000000
vt 0.453125 1.000000
vt 0.421875 1.000000
vt 0.390625 1.000000
vt 0.359375 1.000000
vt 0.328125 1.000000
vt 0.296875 1.000000
vt 0.265625 1.000000
vt 0.234375 1.000000
vt 0.203125 1.000000
vt 0.171875 1.000000
vt 0.140625 1.000000
vt 0.109375 1.000000
vt 0.078125 1.000000
vt 0.046875 1.000000
vt 0.015625 1.000000
vt 0.984375 1.000000
vt 0.953125 1.000000
vt 0.921875 1.000000
vt 0.890625 1.000000
vt 0.859375 1.000000
vt 0.828125 1.000000
vt 0.796875 1.000000
vt 0.765625 1.000000
vt 0.062500 0.937500
vt 0.062500 0.875000
vt 0.062500 0.812500
vt 0.062500 0.750000
vt 0.031250 0.937500
vt 0.031250 0.875000
vt 0.031250 0.812500
vt 0.031250 0.750000
vt 0.000000 0.937500
vt 1.000000 0.937500
vt 0.000000 0.875000
vt 1.000000 0.875000
vt 0.000000 0.812500
vt 1.000000 0.812500
vt 0.000000 0.750000
vt 1.000000 0.750000
vt 0.968750 0.937500
vt 0.968750 0.875000
vt 0.968750 0.812500
vt 0.968750 0.750000
vt 0.937500 0.937500
vt 0.937500 0.875000
vt 0.937500 0.812500
vt 0.937500 0.750000
vt 0.906250 0.937500
vt 0.906250 0.875000
vt 0.906250 0.812500
vt 0.906250 0.750000
vt 0.875000 0.937500
vt 0.875000 0.875000
vt 0.875000 0.812500
vt 0.875000 0.750000
vt 0.843750 0.937500
vt 0.843750 0.875000
vt 0.843750 0.812500
vt 0.843750 0.750000
vt 0.718750 0.750000
vt 0.687500 0.750000
vt 0.750000 0.750000
vt 0.718750 0.750000
vt 0.781250 0.750000
vt 0.812500 0.750000
vt 0.843750 0.750000
vt 0.875000 0.750000
vt 0.812500 0.937500
vt 0.812500 0.875000
vt 0.812500 0.812500
vt 0.812500 0.750000
vt 0.906250 0.750000
vt 0.937500 0.750000
vt 0.968750 0.750000
vt 0.000000 0.750000
vt 1.000000 0.750000
vt 0.031250 0.750000
vt 0.062500 0.750000
vt 0.093750 0.750000
vt 0.125000 0.750000
vt 0.156250 0.750000
vt 0.187500 0.750000
vt 0.218750 0.750000
vt 0.781250 0.937500
vt 0.781250 0.875000
vt 0.781250 0.812500
vt 0.781250 0.750000
vt 0.250000 0.750000
vt 0.281250 0.750000
vt 0.312500 0.750000
vt 0.343750 0.750000
vt 0.375000 0.750000
vt 0.406250 0.750000
vt 0.437500 0.750000
vt 0.468750 0.750000
vt 0.500000 0.750000
vt 0.531250 0.750000
vt 0.562500 0.750000
vt 0.593750 0.750000
vt 0.625000 0.750000
vt 0.656250 0.750000
vt 0.687500 0.750000
vt 0.718750 0.750000
vt 0.750000 0.750000
vt 0.812500 0.750000
vt 0.843750 0.750000
vt 0.937500 0.750000
vt 0.968750 0.750000
vt 0.750000 0.750000
s 1
f 4/4/1 3/3/2 7/7/3 8/8/4
f 1/1/5 89/89/6 5/5/7
f 2/2/8 1/1/5 5/5/7 6/6/9
f 3/3/2 2/2/8 6/6/9 7/7/3
f 7/7/3 6/6/9 10/10/10 11/11/11
f 8/8/4 7/7/3 11/11/11 12/12/12
f 5/5/7 89/90/6 9/9/13
f 6/6/9 5/5/7 9/9/13 10/10/10
f 9/9/13 89/91/6 13/13/14
f 10/10/10 9/9/13 13/13/14 14/14/15
f 11/11/11 10/10/10 14/14/15 15/15/16
f 12/12/12 11/11/11 15/15/16 16/16/17
f 16/16/17 15/15/16 19/19/18 20/20/19
f 13/13/14 89/92/6 17/17/20
f 14/14/15 13/13/14 17/17/20 18/18/21
f 15/15/16 14/14/15 18/18/21 19/19/18
f 17/17/20 89/93/6 21/21/22
f 18/18/21 17/17/20 21/21/22 22/22/23
f 19/19/18 18/18/21 22/22/23 23/23/24
f 20/20/19 19/19/18 23/23/24 24/24/25
f 24/24/25 23/23/24 27/27/26 28/28/27
f 21/21/22 89/94/6 25/25/28
f 22/22/23 21/21/22 25/25/28 26/26/29
f 23/23/24 22/22/23 26/26/29 27/27/26
f 25/25/28 89/95/6 29/29/30
f 26/26/29 25/25/28 29/29/30 30/30/31
f 27/27/26 26/26/29 30/30/31 31/31/32
f 28/28/27 27/27/26 31/31/32 32/32/33
f 29/29/30 89/96/6 33/33/34
f 30/30/31 29/29/30 33/33/34 34/34/35
f 31/31/32 30/30/31 34/34/35 35/35/36
f 32/32/33 31/31/32 35/35/36 36/36/37
f 34/34/35 33/33/34 37/37/38 38/38/39
f 35/35/36 34/34/35 38/38/39 39/39/40
f 36/36/37 35/35/36 39/39/40 40/40/41
f 33/33/34 89/97/6 37/37/38
f 37/37/38 89/98/6 41/41/42
f 38/38/39 37/37/38 41/41/42 42/42/43
f 39/39/40 38/38/39 42/42/43 43/43/44
f 40/40/41 39/39/40 43/43/44 44/44/45
f 42/42/43 41/41/42 45/45/46 46/46/47
f 43/43/44 42/42/43 46/46/47 47/47/48
f 44/44/45 43/43/44 47/47/48 48/48/49
f 41/41/42 89/99/6 45/45/46
f 45/45/46 89/100/6 49/49/50
f 46/46/47 45/45/46 49/49/50 50/50/51
f 47/47/48 46/46/47 50/50/51 51/51/52
f 48/48/49 47/47/48 51/51/52 52/52/53
f 51/51/52 50/50/51 54/54/54 55/55/55
f 52/52/53 51/51/52 55/55/55 56/56/56
f 49/49/50 89/101/6 53/53/57
f 50/50/51 49/49/50 53/53/57 54/54/54
f 53/53/57 89/102/6 57/57/58
f 54/54/54 53/53/57 57/57/58 58/58/59
f 55/55/55 54/54/54 58/58/59 59/59/60
f 56/56/56 55/55/55 59/59/60 60/60/61
f 59/59/60 58/58/59 62/62/62 63/63/63
f 60/60/61 59/59/60 63/63/63 64/64/64
f 57/57/58 89/103/6 61/61/65
f 58/58/59 57/57/58 61/61/65 62/62/62
f 61/61/65 89/104/6 65/65/66
f 62/62/62 61/61/65 65/65/66 66/66/67
f 63/63/63 62/62/62 66/66/67 67/67/68
f 64/64/64 63/63/63 67/67/68 68/68/69
f 68/68/69 67/67/68 71/71/70 72/72/71
f 65/65/66 89/105/6 69/69/72
f 66/66/67 65/65/66 69/69/72 70/70/73
f 67/67/68 66/66/67 70/70/73 71/71/70
f 69/69/72 89/106/6 73/73/74
f 70/70/73 69/69/72 73/73/74 74/74/75
f 71/71/70 70/70/73 74/74/75 75/75/76
f 72/72/71 71/71/70 75/75/76 76/76/77
f 73/73/74 89/107/6 77/77/78
f 74/74/75 73/73/74 77/77/78 78/78/79
f 75/75/76 74/74/75 78/78/79 79/79/80
f 76/76/77 75/75/76 79/79/80 80/80/81
f 77/77/78 89/108/6 81/81/82
f 78/78/79 77/77/78 81/81/82 82/82/83
f 79/79/80 78/78/79 82/82/83 83/83/84
f 80/80/81 79/79/80 83/83/84 84/84/85
f 81/81/82 89/109/6 85/85/86
f 82/82/83 81/81/82 85/85/86 86/86/87
f 83/83/84 82/82/83 86/86/87 87/87/88
f 84/84/85 83/83/84 87/87/88 88/88/89
f 86/86/87 85/85/86 90/121/90 91/122/91
f 87/87/88 86/86/87 91/122/91 92/123/92
f 88/88/89 87/87/88 92/123/92 93/124/93
f 85/85/86 89/110/6 90/121/90
f 90/121/90 89/111/6 94/125/94
f 91/122/91 90/121/90 94/125/94 95/126/95
f 92/123/92 91/122/91 95/126/95 96/127/96
f 93/124/93 92/123/92 96/127/96 97/128/97
f 95/126/95 94/125/94 98/129/98 99/131/99
f 96/127/96 95/126/95 99/131/99 100/133/100
f 97/128/97 96/127/96 100/133/100 101/135/101
f 94/125/94 89/112/6 98/129/98
f 98/130/98 89/113/6 102/137/102
f 99/132/99 98/130/98 102/137/102 103/138/103
f 100/134/100 99/132/99 103/138/103 104/139/104
f 101/136/101 100/134/100 104/139/104 105/140/105
f 104/139/104 103/138/103 107/142/106 108/143/107
f 105/140/105 104/139/104 108/143/107 109/144/108
f 102/137/102 89/114/6 106/141/109
f 103/138/103 102/137/102 106/141/109 107/142/106
f 106/141/109 89/115/6 110/145/110
f 107/142/106 106/141/109 110/145/110 111/146/111
f 108/143/107 107/142/106 111/146/111 112/147/112
f 109/144/108 108/143/107 112/147/112 113/148/113
f 113/148/113 112/147/112 116/151/114 117/152/115
f 110/145/110 89/116/6 114/149/116
f 111/146/111 110/145/110 114/149/116 115/150/117
f 112/147/112 111/146/111 115/150/117 116/151/114
f 4/4/1 8/8/4 164/200/4 165/201/1
f 114/149/116 89/117/6 118/153/118
f 32/32/33 36/36/37 157/193/37 158/194/33
f 115/150/117 114/149/116 118/153/118 119/154/119
f 116/151/114 115/150/117 119/154/119 120/155/120
f 164/200/121 123/158/6 122/157/6
f 117/152/115 116/151/114 120/155/120 121/156/122
f 165/201/123 125/160/124 124/159/6 170/206/6
f 117/152/115 121/156/125 128/163/125 129/164/115
f 20/20/19 24/24/126 160/196/126 161/197/19
f 121/156/122 120/155/120 132/167/127 133/168/128
f 12/12/129 16/16/130 162/198/130 163/199/129
f 84/84/85 88/88/131 140/176/131 141/177/85
f 44/44/132 48/48/133 154/190/133 155/191/132
f 52/52/53 56/56/134 152/188/134 153/189/53
f 88/88/131 93/124/135 139/175/135 140/176/131
f 97/128/97 101/135/101 137/172/101 138/174/97
f 56/56/134 60/60/61 151/187/61 152/188/134
f 64/64/64 68/68/69 149/185/69 150/186/64
f 118/153/118 89/118/6 130/165/136
f 101/136/101 105/140/105 136/171/105 137/173/101
f 109/144/108 113/148/137 134/169/137 135/170/108
f 119/154/119 118/153/118 130/165/136 131/166/138
f 148/184/139 4/4/1 165/201/1 126/161/139
f 120/155/120 119/154/119 131/166/138 132/167/127
f 76/76/140 80/80/141 142/178/141 143/179/140
f 48/48/133 52/52/53 153/189/53 154/190/133
f 130/165/136 89/119/6 145/181/142
f 60/60/61 64/64/64 150/186/64 151/187/61
f 68/68/69 72/72/71 144/180/71 149/185/69
f 131/166/138 130/165/136 145/181/142 146/182/143
f 93/124/135 97/128/97 138/174/97 139/175/135
f 132/167/127 131/166/138 146/182/143 147/183/144
f 80/80/141 84/84/85 141/177/85 142/178/141
f 133/168/128 132/167/127 147/183/144 148/184/139
f 133/168/145 148/184/139 126/161/139 127/162/145
f 36/36/37 40/40/41 156/192/41 157/193/37
f 28/28/27 32/32/33 158/194/33 159/195/27
f 121/156/125 133/168/145 127/162/145 128/163/125
f 113/148/137 117/152/115 129/164/115 134/169/137
f 24/24/126 28/28/27 159/195/27 160/196/126
f 16/16/130 20/20/19 161/197/19 162/198/130
f 40/40/41 44/44/132 155/191/132 156/192/41
f 145/181/142 89/120/6 1/1/5
f 8/8/4 12/12/129 163/199/129 164/200/4
f 105/140/105 109/144/108 135/170/108 136/171/105
f 146/182/143 145/181/142 1/1/5 2/2/8
f 72/72/71 76/76/140 143/179/140 144/180/71
f 147/183/144 146/182/143 2/2/8 3/3/2
f 148/184/139 147/183/144 3/3/2 4/4/1
f 128/163/146 166/202/6 167/203/6
f 136/171/147 168/204/148 169/205/6
f 164/200/149 163/199/6 123/158/6
f 165/201/150 164/200/6 125/160/151
f 128/163/152 127/162/6 166/202/6
f 136/171/153 135/170/6 168/204/154
f 137/173/155 136/171/6 169/205/156
f 168/204/6 135/170/157 134/169/158
f 123/158/6 163/199/159 162/198/160
f 129/164/161 128/163/6 167/203/162
f 125/160/6 164/200/6 122/157/6
f 167/203/152 166/202/6 127/162/163
f 126/161/164 165/201/6 170/206/6 124/159/165
f 125/160/6 122/157/121 123/158/6
o Sphere.001
v 0.397091 -0.211484 -1.996312
v -0.000000 -0.211484 -2.035422
v 0.397091 -0.211484 -1.996312
v -0.397092 -0.211484 -1.996311
v -0.778924 -0.211484 -1.880484
v -1.439263 -0.211484 -1.439259
v -1.692395 -0.211484 -1.130818
v -2.035425 -0.211484 0.000004
v -1.996315 -0.211484 0.397095
v -1.880488 -0.211484 0.778927
v -1.692395 -0.211484 1.130825
v -1.439263 -0.211484 1.439267
v -1.130822 -0.211484 1.692398
v -0.778924 -0.211484 1.880491
v -0.397092 -0.211484 1.996319
v -0.000000 -0.211484 2.035429
v 0.397091 -0.211484 1.996319
v 0.778923 -0.211484 1.880491
v 1.130821 -0.211484 1.692398
v 1.439263 -0.211484 1.439267
v 1.692394 -0.211484 1.130826
v 1.880487 -0.211484 0.778927
v 1.996315 -0.211484 0.397095
v 2.035425 -0.211484 0.000004
v 1.996315 -0.211484 -0.397088
v 1.880488 -0.211484 -0.778920
v 1.692394 -0.211484 -1.130818
v 1.439263 -0.211484 -1.439260
v 1.130822 -0.211484 -1.692391
v 0.778923 -0.211484 -1.880485
v 0.397091 -0.211484 -1.996312
v -1.130822 -0.211484 -1.692390
v -1.880488 -0.211484 -0.778920
v -1.996315 -0.211484 -0.397088
v -0.000000 -0.211484 -2.035422
v -0.000000 -0.211484 0.000003
v -0.000000 -0.211484 0.000003
vn -0.0000 -1.0000 -0.0000
vt 0.000000 0.000000
vt 0.000000 0.000000
vt 0.000000 0.000000
vt 0.781250 0.750000
vt 0.000000 0.000000
vt 0.812500 0.750000
vt 0.875000 0.750000
vt 0.906250 0.750000
vt 0.000000 0.750000
vt 0.031250 0.750000
vt 0.062500 0.750000
vt 0.093750 0.750000
vt 0.125000 0.750000
vt 0.156250 0.750000
vt 0.187500 0.750000
vt 0.218750 0.750000
vt 0.250000 0.750000
vt 0.281250 0.750000
vt 0.312500 0.750000
vt 0.343750 0.750000
vt 0.375000 0.750000
vt 0.406250 0.750000
vt 0.437500 0.750000
vt 0.468750 0.750000
vt 0.500000 0.750000
vt 0.531250 0.750000
vt 0.562500 0.750000
vt 0.593750 0.750000
vt 0.625000 0.750000
vt 0.656250 0.750000
vt 0.687500 0.750000
vt 0.718750 0.750000
vt 0.843750 0.750000
vt 0.937500 0.750000
vt 0.968750 0.750000
vt 0.000000 0.000000
vt 0.000000 0.000000
vt 0.000000 0.000000
s 0
f 171/207/166 207/244/166 205/242/166 172/208/166 173/209/166
f 201/238/166 200/237/166 207/244/166
f 207/244/166 200/237/166 199/236/166
f 199/236/166 198/235/166 207/244/166
f 198/235/166 197/234/166 207/244/166
f 197/234/166 196/233/166 207/244/166
f 196/233/166 195/232/166 207/244/166
f 194/231/166 207/244/166 195/232/166
f 194/231/166 193/230/166 207/244/166
f 206/243/166 193/230/166 192/229/166
f 192/229/166 191/228/166 206/243/166
f 191/228/166 190/227/166 206/243/166
f 190/227/166 189/226/166 206/243/166
f 188/225/166 207/244/166 189/226/166
f 188/225/166 187/224/166 207/244/166
f 187/224/166 186/223/166 207/244/166
f 186/223/166 185/222/166 207/244/166
f 185/222/166 184/221/166 207/244/166
f 183/220/166 207/244/166 184/221/166
f 182/219/166 206/243/166 183/220/166
f 181/218/166 206/243/166 182/219/166
f 181/218/166 180/217/166 206/243/166
f 180/217/166 179/216/166 206/243/166
f 179/216/166 178/215/166 206/243/166
f 178/215/166 204/241/166 206/243/166
f 204/241/166 203/240/166 206/243/166
f 203/240/166 177/214/166 206/243/166
f 177/214/166 176/213/166 206/243/166
f 176/213/166 202/239/166 206/243/166
f 202/239/166 175/212/166 206/243/166
f 175/212/166 174/210/166 206/243/166
f 172/208/166 205/242/166 206/243/166 174/211/166
